<svg xmlns="http://www.w3.org/2000/svg" xmlns:xlink="http://www.w3.org/1999/xlink" viewBox="0,0,256,256" width="100px" height="100px" fill-rule="nonzero"><defs><linearGradient x1="16.309" y1="1.101" x2="23.023" y2="19.546" gradientUnits="userSpaceOnUse" id="color-1"><stop offset="0" stop-color="#f44f5a"></stop><stop offset="0.443" stop-color="#ee3d4a"></stop><stop offset="1" stop-color="#e52030"></stop></linearGradient><linearGradient x1="15.64" y1="14.636" x2="22.314" y2="32.971" gradientUnits="userSpaceOnUse" id="color-2"><stop offset="0" stop-color="#ae4cd5"></stop><stop offset="1" stop-color="#9331bf"></stop></linearGradient><linearGradient x1="14.81" y1="26.357" x2="21.821" y2="45.617" gradientUnits="userSpaceOnUse" id="color-3"><stop offset="0" stop-color="#33c481"></stop><stop offset="1" stop-color="#21a366"></stop></linearGradient><linearGradient x1="27.498" y1="0.512" x2="34.119" y2="18.702" gradientUnits="userSpaceOnUse" id="color-4"><stop offset="0" stop-color="#f09ca2"></stop><stop offset="1" stop-color="#eb6773"></stop></linearGradient><linearGradient x1="28.714" y1="14.972" x2="34.857" y2="31.85" gradientUnits="userSpaceOnUse" id="color-5"><stop offset="0" stop-color="#32bdef"></stop><stop offset="1" stop-color="#1ea2e4"></stop></linearGradient><linearGradient x1="10.5112" y1="14.5107" x2="1.3763" y2="5.3758" gradientUnits="userSpaceOnUse" id="color-6"><stop offset="0.2178" stop-color="#108c56"></stop><stop offset="0.5497" stop-color="#14a865"></stop></linearGradient><linearGradient x1="20.40886" y1="1.42221" x2="7.23601" y2="14.59506" gradientUnits="userSpaceOnUse" id="color-7"><stop offset="0" stop-color="#2ac782"></stop><stop offset="1" stop-color="#21b876"></stop></linearGradient></defs><g fill="#ffffff" fill-rule="nonzero" stroke="none" stroke-width="1" stroke-linecap="butt" stroke-linejoin="miter" stroke-miterlimit="10" stroke-dasharray="" stroke-dashoffset="0" font-family="none" font-weight="none" font-size="none" text-anchor="none" style="mix-blend-mode: normal"><path d="M12.8,256c-7.06924,0 -12.8,-5.73076 -12.8,-12.8v-230.4c0,-7.06924 5.73076,-12.8 12.8,-12.8h230.4c7.06924,0 12.8,5.73076 12.8,12.8v230.4c0,7.06924 -5.73076,12.8 -12.8,12.8z" id="shape"></path></g><g fill="none" fill-rule="nonzero" stroke="none" stroke-width="1" stroke-linecap="butt" stroke-linejoin="miter" stroke-miterlimit="10" stroke-dasharray="" stroke-dashoffset="0" font-family="none" font-weight="none" font-size="none" text-anchor="none" style="mix-blend-mode: normal"><g transform="scale(5.33333,5.33333)"><path d="M26,17h-8c-3.866,0 -7,-3.134 -7,-7v0c0,-3.866 3.134,-7 7,-7h8z" fill="url(#color-1)"></path><path d="M25,31h-7c-3.866,0 -7,-3.134 -7,-7v0c0,-3.866 3.134,-7 7,-7h7z" fill="url(#color-2)"></path><path d="M18,45v0c-3.866,0 -7,-3.134 -7,-7v0c0,-3.866 3.134,-7 7,-7h7v7c0,3.866 -3.134,7 -7,7z" fill="url(#color-3)"></path><path d="M32,17h-7v-14h7c3.866,0 7,3.134 7,7v0c0,3.866 -3.134,7 -7,7z" fill="url(#color-4)"></path><circle cx="32" cy="24" r="7" fill="url(#color-5)"></circle></g></g><g fill="none" fill-rule="nonzero" stroke="none" stroke-width="1" stroke-linecap="butt" stroke-linejoin="miter" stroke-miterlimit="10" stroke-dasharray="" stroke-dashoffset="0" font-family="none" font-weight="none" font-size="none" text-anchor="none" style="mix-blend-mode: normal"><g transform="translate(136.42628,165.2941) scale(4.4561,4.4561)" id="overlay"><path d="M8.206,15.578l-7.784,-7.784c-0.391,-0.391 -0.391,-1.024 0,-1.414l1.958,-1.959c0.391,-0.39 1.024,-0.39 1.414,0l8.005,8.005c0.269,0.269 0.269,0.706 0,0.975l-2.179,2.177c-0.391,0.391 -1.024,0.39 -1.414,0z" fill="url(#color-6)"></path><path d="M6.248,12.206l11.758,-11.758c0.391,-0.391 1.024,-0.391 1.414,0l1.959,1.959c0.391,0.391 0.391,1.024 0,1.414l-11.759,11.757c-0.391,0.391 -1.024,0.39 -1.414,0l-1.958,-1.958c-0.39,-0.391 -0.39,-1.024 0,-1.414z" fill="url(#color-7)"></path></g></g></svg>