<svg xmlns="http://www.w3.org/2000/svg" xmlns:xlink="http://www.w3.org/1999/xlink" viewBox="0,0,256,256" width="100px" height="100px" fill-rule="nonzero"><g fill="#ffffff" fill-rule="nonzero" stroke="none" stroke-width="1" stroke-linecap="butt" stroke-linejoin="miter" stroke-miterlimit="10" stroke-dasharray="" stroke-dashoffset="0" font-family="none" font-weight="none" font-size="none" text-anchor="none" style="mix-blend-mode: normal"><path d="M12.8,256c-7.06924,0 -12.8,-5.73076 -12.8,-12.8v-230.4c0,-7.06924 5.73076,-12.8 12.8,-12.8h230.4c7.06924,0 12.8,5.73076 12.8,12.8v230.4c0,7.06924 -5.73076,12.8 -12.8,12.8z" id="shape"></path></g><g fill="none" fill-rule="nonzero" stroke="none" stroke-width="1" stroke-linecap="butt" stroke-linejoin="miter" stroke-miterlimit="10" stroke-dasharray="" stroke-dashoffset="0" font-family="none" font-weight="none" font-size="none" text-anchor="none" style="mix-blend-mode: normal"><g transform="scale(5.33333,5.33333)"><path d="M24,4l-17,10v20l17,10l17,-10v-20z" fill="#eceff1"></path><path d="M23.5,24.5v9l-8.5,-4.5v-9.5z" fill="#0277bd"></path><path d="M24.5,24.5v9l8.5,-4.5v-9.5z" fill="#0277bd"></path><path d="M24,23.5l-8.5,-5l8.5,-4.5l8.5,4.5z" fill="#0277bd"></path><g fill="#81d4fa"><path d="M23.5,7v6l-9,5l-5,-3z"></path><path d="M23.5,41v-6l-9,-5l-5,3z"></path><path d="M14,19l-5,-3v16l5,-3z"></path><path d="M24.5,7v6l9,5l5,-3z"></path><path d="M24.5,41v-6l9,-5l5,3z"></path><path d="M34,19l5,-3v16l-5,-3z"></path></g></g></g><g fill="#43a047" fill-rule="nonzero" stroke="none" stroke-width="1" stroke-linecap="butt" stroke-linejoin="miter" stroke-miterlimit="10" stroke-dasharray="" stroke-dashoffset="0" font-family="none" font-weight="none" font-size="none" text-anchor="none" style="mix-blend-mode: normal"><g transform="translate(137,166.09091) scale(4.36364,4.36364)" id="overlay"><path d="M19,0l-10,10l-6,-6l-3,3l9,9l13,-13z"></path></g></g></svg>