<svg width="26" height="26" viewBox="0 0 26 26" fill="none" xmlns="http://www.w3.org/2000/svg">
<path d="M2.84375 6.94531H23.1562C23.5877 6.94531 23.9375 6.59556 23.9375 6.16406V4.21094C23.9375 3.77944 23.5877 3.42969 23.1562 3.42969H2.84375C2.41226 3.42969 2.0625 3.77944 2.0625 4.21094V6.16406C2.0625 6.59556 2.41226 6.94531 2.84375 6.94531ZM2.84375 14.7578H23.1562C23.5877 14.7578 23.9375 14.4081 23.9375 13.9766V12.0234C23.9375 11.5919 23.5877 11.2422 23.1562 11.2422H2.84375C2.41226 11.2422 2.0625 11.5919 2.0625 12.0234V13.9766C2.0625 14.4081 2.41226 14.7578 2.84375 14.7578ZM2.84375 22.5703H23.1562C23.5877 22.5703 23.9375 22.2206 23.9375 21.7891V19.8359C23.9375 19.4044 23.5877 19.0547 23.1562 19.0547H2.84375C2.41226 19.0547 2.0625 19.4044 2.0625 19.8359V21.7891C2.0625 22.2206 2.41226 22.5703 2.84375 22.5703Z" fill="#FBFBFB"/>
</svg>
