<svg width="21" height="21" viewBox="0 0 21 21" fill="none" xmlns="http://www.w3.org/2000/svg">
<g clip-path="url(#clip0_76_1254)">
<path d="M20.4852 8.0376C20.6375 7.9165 20.8641 8.02979 20.8641 8.22119V16.2095C20.8641 17.2446 20.0242 18.0845 18.9891 18.0845H2.73907C1.70392 18.0845 0.864075 17.2446 0.864075 16.2095V8.2251C0.864075 8.02979 1.08673 7.92041 1.24298 8.0415C2.11798 8.72119 3.27814 9.58447 7.26251 12.479C8.08673 13.0806 9.47736 14.3462 10.8641 14.3384C12.2586 14.3501 13.6766 13.0571 14.4695 12.479C18.4539 9.58447 19.6102 8.71729 20.4852 8.0376ZM10.8641 13.0845C11.7703 13.1001 13.075 11.9438 13.7313 11.4673C18.9149 7.70557 19.3094 7.37744 20.5047 6.43994C20.7313 6.26416 20.8641 5.99072 20.8641 5.70166V4.95947C20.8641 3.92432 20.0242 3.08447 18.9891 3.08447H2.73907C1.70392 3.08447 0.864075 3.92432 0.864075 4.95947V5.70166C0.864075 5.99072 0.996887 6.26025 1.22345 6.43994C2.41876 7.37353 2.81329 7.70557 7.99689 11.4673C8.65314 11.9438 9.95782 13.1001 10.8641 13.0845Z" fill="#2BF0FB"/>
</g>
<defs>
<clipPath id="clip0_76_1254">
<rect width="20" height="20" fill="white" transform="translate(0.864075 0.584473)"/>
</clipPath>
</defs>
</svg>
