<?xml version="1.0" encoding="UTF-8" standalone="no"?>
<!-- Created with Inkscape (http://www.inkscape.org/) -->

<svg
   width="100"
   height="100"
   viewBox="0 0 100 100"
   version="1.1"
   id="svg5"
   xml:space="preserve"
   inkscape:export-filename="jwt.svg"
   inkscape:export-xdpi="96"
   inkscape:export-ydpi="96"
   xmlns:inkscape="http://www.inkscape.org/namespaces/inkscape"
   xmlns:sodipodi="http://sodipodi.sourceforge.net/DTD/sodipodi-0.dtd"
   xmlns="http://www.w3.org/2000/svg"
   xmlns:svg="http://www.w3.org/2000/svg"><sodipodi:namedview
     id="namedview7"
     pagecolor="#505050"
     bordercolor="#ffffff"
     borderopacity="1"
     inkscape:showpageshadow="0"
     inkscape:pageopacity="0"
     inkscape:pagecheckerboard="1"
     inkscape:deskcolor="#505050"
     inkscape:document-units="px"
     showgrid="false" /><defs
     id="defs2" /><g
     inkscape:label="Capa 1"
     inkscape:groupmode="layer"
     id="layer1"><g
       id="g367"
       style="fill:none;fill-rule:evenodd;stroke:none;stroke-width:1"
       transform="matrix(0.49043222,0,0,0.51011334,1.3285683,-1.1546189)"><rect
         id="Rectangle-path"
         fill="#000000"
         x="0"
         y="0"
         width="200"
         height="200" /><g
         transform="translate(50,50)"
         id="Shape"><path
           d="M 57.5,26.9 V 0 h -15 V 26.9 L 50,37.2 Z"
           fill="#ffffff"
           id="path346" /><path
           d="M 42.5,73.1 V 100 h 15 V 73.1 L 50,62.8 Z"
           fill="#ffffff"
           id="path348" /><path
           d="M 57.5,73.1 73.3,94.9 85.5,86 69.6,64.3 57.5,60.3 Z"
           fill="#00f2e6"
           id="path350" /><path
           d="M 42.5,26.9 26.7,5.1 14.5,14 l 15.9,21.7 12.1,4 z"
           fill="#00f2e6"
           id="path352" /><path
           d="M 30.4,35.7 4.8,27.4 0.1,41.7 25.7,50 37.9,46.1 Z"
           fill="#00b9f1"
           id="path354" /><path
           d="M 62.1,53.9 69.6,64.3 95.2,72.6 99.9,58.3 74.3,50 Z"
           fill="#00b9f1"
           id="path356" /><path
           d="M 74.3,50 99.9,41.7 95.2,27.4 69.6,35.7 62.1,46.1 Z"
           fill="#d63aff"
           id="path358" /><path
           d="M 25.7,50 0.1,58.3 4.8,72.6 30.4,64.3 37.9,53.9 Z"
           fill="#d63aff"
           id="path360" /><path
           d="M 30.4,64.3 14.5,86 26.7,94.9 42.5,73.1 V 60.3 Z"
           fill="#fb015b"
           id="path362" /><path
           d="M 69.6,35.7 85.5,14 73.3,5.1 57.5,26.9 v 12.8 z"
           fill="#fb015b"
           id="path364" /></g></g></g></svg>
