<svg width="19" height="25" viewBox="0 0 19 25" fill="none" xmlns="http://www.w3.org/2000/svg">
<path d="M11.0625 6.64062V0H1.29688C0.647461 0 0.125 0.522461 0.125 1.17188V23.8281C0.125 24.4775 0.647461 25 1.29688 25H17.7031C18.3525 25 18.875 24.4775 18.875 23.8281V7.8125H12.2344C11.5898 7.8125 11.0625 7.28516 11.0625 6.64062ZM14.7954 16.9609L10.0874 21.6338C9.7627 21.9565 9.23828 21.9565 8.91357 21.6338L4.20557 16.9609C3.70996 16.4692 4.05762 15.625 4.75488 15.625H7.9375V11.7188C7.9375 11.2871 8.28711 10.9375 8.71875 10.9375H10.2812C10.7129 10.9375 11.0625 11.2871 11.0625 11.7188V15.625H14.2451C14.9424 15.625 15.29 16.4692 14.7954 16.9609ZM18.5332 5.12695L13.7529 0.341797C13.5332 0.12207 13.2354 0 12.9229 0H12.625V6.25H18.875V5.95215C18.875 5.64453 18.7529 5.34668 18.5332 5.12695Z" fill="#011627"/>
</svg>
